<svg width="178" height="223" viewBox="0 0 178 223" fill="none" xmlns="http://www.w3.org/2000/svg">
<path d="M136.255 25.8575C134.422 25.8575 129.955 26.9575 126.755 31.3575M145.255 31.3575C144.755 32.3575 143.655 34.8575 143.255 36.8575M156.755 31.3575C158.422 34.0242 161.755 40.0575 161.755 42.8575M169.755 55.692C165.73 52.2524 161.755 47.917 161.755 49.8575C161.755 52.2575 155.755 55.8575 152.755 57.3575C148.355 56.9575 142.922 48.5242 140.755 44.3575C137.955 47.1575 130.255 49.1909 126.755 49.8575C123.955 48.6575 120.922 40.6909 119.755 36.8575C117.301 37.471 114.829 36.8909 112.755 35.9322M169.755 55.692C171.953 57.57 174.166 59.1809 175.755 59.3575C176.755 48.8575 173.555 26.7575 152.755 22.3575C131.955 17.9575 114.422 27.5242 108.255 32.8575C109.151 33.7535 110.771 35.0158 112.755 35.9322M169.755 55.692C173.264 66.3575 179.955 104.658 140.755 171.858C101.555 239.058 45.7549 223.191 22.7549 206.858C2.42155 189.524 -18.2363 128.801 40.7549 109.358C86.2644 94.3576 109.264 45.3575 112.755 35.9322M149.764 128.358C143.091 145.191 125.448 181.658 108.255 192.858M25.2637 126.858C17.097 133.858 2.76367 152.658 10.7637 171.858M111.764 48.3575C108.93 53.6909 103.264 64.7575 103.264 66.3575M163.764 63.3575C164.097 65.5242 164.564 70.4575 163.764 72.8575M163.764 76.8575C163.43 80.5242 162.064 89.2575 159.264 94.8575M147.755 28.3575C149.922 20.8575 150.255 4.35754 151.755 2.35753C155.088 1.35753 160.755 1.85753 156.755 11.8575C152.755 21.8575 149.088 27.0242 147.755 28.3575Z" stroke="#C6C6C6" stroke-width="3" stroke-linecap="round"/>
</svg>
