<svg width="103" height="148" viewBox="0 0 103 148" fill="none" xmlns="http://www.w3.org/2000/svg">
<path d="M13.9065 25.8849C8.30646 24.8945 0.815845 14.1849 1.6549 16.7877C8.05884 26.2945 27.6287 44.9344 26.2767 48.088M13.9065 25.8849C12.9039 20.1249 9.91419 7.47769 5.97583 2.96947C1.05289 -2.6658 24.321 15.2566 23.5599 23.5496M13.9065 25.8849C16.857 26.4067 20.954 29.8532 24.7796 33.8224M26.2767 48.088C27.5892 48.9028 30.1225 51.6645 32.1605 54.0921C31.1389 48.9699 30.4423 42.2095 33.1096 44.4079M26.2767 48.088C24.7475 47.1386 24.8756 48.832 29.3755 56.776C30.1656 58.0227 30.6401 60.2925 26.9189 61.6838C3.23433 70.5392 -9.78546 163.911 75.1844 142.266C98.8384 136.241 129.11 64.3088 51.1693 53.5558C47.3534 53.3622 39.6235 51.0806 39.231 43.5034C38.9542 38.1575 37.7403 40.1891 37.2652 43.7939M23.5599 23.5496C24.852 18.9654 23.672 5.90841 24.4237 4.78849C28.1484 -0.761118 27.9067 28.3611 37.2652 43.7939M23.5599 23.5496C23.8035 26.5435 24.3884 32.7894 24.7796 33.8224M37.2652 43.7939C36.8986 46.5758 38.2556 52.2826 38.2556 52.2826C35.8438 47.6897 34.1971 45.3042 33.1096 44.4079M24.7796 33.8224L33.1096 44.4079M30.0003 67.1367C19.7508 86.9817 9.69451 129.673 51.4648 141.681M35.8152 60.3693C35.8183 82.9412 40.7918 129.714 60.661 136.232M41.9255 61.7389C49.3566 82.3043 65.8993 123.732 72.6214 124.92M45.1575 58.9889C59.7746 70.7664 88.0839 100.366 84.385 124.546M55.3871 57.4774C73.6887 68.559 105.281 98.6433 85.2393 130.328M18.664 76.5378C17.0485 79.9579 13.9023 88.6033 14.2422 95.8247M17.9223 120.732C19.2113 124.329 22.8859 132.178 27.273 134.802M64.9713 106.963C65.9351 109.396 68.5515 114.614 71.307 116.025M75.3817 63.6126C80.5691 66.9364 91.4372 75.6927 93.4106 84.127" stroke="#C6C6C6" stroke-width="3" stroke-linecap="round" stroke-linejoin="round"/>
</svg>
