<svg width="138" height="133" viewBox="0 0 138 133" fill="none" xmlns="http://www.w3.org/2000/svg">
<path d="M77.7167 21.5064C82.5051 25.655 96.3615 27.3049 98.356 30.808C97.8497 34.8073 88.1956 35.023 78.2026 30.5073C72.1645 30.3056 63.6598 33.2922 58.4666 33.8225C52.8869 35.5958 41.6557 40.7962 41.0537 51.8722C40.3013 65.7172 35.3987 52.5941 24.7561 70.0005C23.1435 72.6378 17.1641 74.6656 15.1361 72.9085C12.6011 70.7122 23.1936 70.1074 25.3242 55.6907C25.6316 51.2327 35.4246 45.871 33.9549 41.2841C26.2199 43.9515 9.6977 48.3154 5.4884 44.4319C1.27909 40.5483 1.38646 35.8485 2.42304 37.0424C6.85447 39.8955 17.4449 42.7198 24.3553 31.1922C26.1848 29.4519 29.6369 26.8892 33.7713 25.1826C34.7025 24.8175 35.5735 19.6097 43.1435 19.0677C43.627 18.4295 44.3657 17.6889 45.3545 16.9559C43.175 11.8994 40.8598 7.03798 40.0884 5.17834C38.4515 1.23236 45.4832 -1.39025 45.6989 8.26405C45.7622 11.0934 46.2644 13.6477 46.9977 15.8914C50.752 13.7663 56.7988 12.2141 64.9971 14.3327C67.7944 12.8115 74.8039 10.0481 80.4637 11.1646C84.5449 8.38895 106.778 6.74435 99.5018 11.3868C95.8071 12.9194 94.4389 10.9262 91.3173 13.8404C87.5654 13.4727 82.1125 14.7845 77.7167 21.5064Z" fill="#FAF9F4"/>
<path d="M20.9178 45.0683C-10.3578 68.8687 14.1152 158.6 93.4108 123.259C181.121 84.1674 109.816 11.4385 94.3495 14.6066C93.5834 14.2589 92.5408 13.9603 91.3173 13.8404M77.7167 21.5064C82.5051 25.655 96.3615 27.3049 98.356 30.808C97.8497 34.8073 88.1956 35.023 78.2026 30.5073C72.1645 30.3056 63.6598 33.2922 58.4666 33.8225C52.8869 35.5958 41.6557 40.7962 41.0537 51.8722C40.3013 65.7172 35.3987 52.5941 24.7561 70.0005C23.1435 72.6378 17.1641 74.6656 15.1361 72.9085C12.6011 70.7122 23.1936 70.1074 25.3242 55.6907C25.6316 51.2327 35.4246 45.871 33.9549 41.2841M77.7167 21.5064C82.1125 14.7845 87.5654 13.4727 91.3173 13.8404M77.7167 21.5064C74.1907 21.7061 66.4922 22.3735 63.9059 23.4464M33.9549 41.2841C34.2285 38.464 36.2606 32.7493 42.1995 32.4509M33.9549 41.2841C26.2199 43.9515 9.6977 48.3154 5.4884 44.4319C1.27909 40.5483 1.38646 35.8485 2.42304 37.0424C6.85447 39.8955 17.4449 42.7198 24.3553 31.1922C26.1848 29.4519 29.6369 26.8892 33.7713 25.1826M43.6739 24.2609C39.8012 23.4969 37.239 23.7512 33.7713 25.1826M33.7713 25.1826C34.7025 24.8175 35.5735 19.6097 43.1435 19.0677C45.3359 16.1735 52.7758 11.1745 64.9971 14.3327C67.7944 12.8115 74.8039 10.0481 80.4637 11.1646C84.5449 8.38895 106.778 6.74435 99.5018 11.3868C95.8071 12.9194 94.4389 10.9262 91.3173 13.8404M12.8167 80.3664C13.9595 87.4708 17.8898 102.513 24.4692 105.846M33.8772 115.476C37.8468 118.521 47.5478 124.421 54.5952 123.663M111.705 29.0597C118.398 36.9291 130.91 55.5206 127.415 66.9305M49.2844 27.3466C47.4359 20.7155 41.4294 8.41115 40.0884 5.17834C38.4515 1.23236 45.4832 -1.39025 45.6989 8.26405C45.9012 17.3171 50.5981 23.5538 52.9792 25.8139C52.1832 26.505 50.3299 27.779 49.2844 27.3466Z" stroke="#C6C6C6" stroke-width="3" stroke-linecap="round"/>
</svg>
