<svg width="32" height="36" viewBox="0 0 32 36" fill="none" xmlns="http://www.w3.org/2000/svg">
<path d="M26.1818 12L18.5455 1.5M5.81818 12L13.4545 1.5M10.9091 22.5V30M21.0909 22.5V30M16 22.5V30M3.27273 18H28.7273L26.3126 33.6525C26.2373 34.1401 25.8177 34.5 25.3243 34.5H6.67574C6.18233 34.5 5.76266 34.1401 5.68743 33.6525L3.27273 18ZM3 18H29C29.5523 18 30 17.5523 30 17V13C30 12.4477 29.5523 12 29 12H3C2.44772 12 2 12.4477 2 13V17C2 17.5523 2.44771 18 3 18Z" stroke="#1C2033" stroke-width="3" stroke-linecap="round"/>
</svg>
