<svg width="31" height="31" viewBox="0 0 31 31" fill="none" xmlns="http://www.w3.org/2000/svg">
<path d="M15.5 11C14.3065 11 13.1619 11.4741 12.318 12.318C11.4741 13.1619 11 14.3065 11 15.5C11 16.6935 11.4741 17.8381 12.318 18.682C13.1619 19.5259 14.3065 20 15.5 20C16.6935 20 17.8381 19.5259 18.682 18.682C19.5259 17.8381 20 16.6935 20 15.5C20 14.3065 19.5259 13.1619 18.682 12.318C17.8381 11.4741 16.6935 11 15.5 11ZM15.5 8C17.4891 8 19.3968 8.79018 20.8033 10.1967C22.2098 11.6032 23 13.5109 23 15.5C23 17.4891 22.2098 19.3968 20.8033 20.8033C19.3968 22.2098 17.4891 23 15.5 23C13.5109 23 11.6032 22.2098 10.1967 20.8033C8.79018 19.3968 8 17.4891 8 15.5C8 13.5109 8.79018 11.6032 10.1967 10.1967C11.6032 8.79018 13.5109 8 15.5 8ZM25.25 7.625C25.25 8.12228 25.0525 8.59919 24.7008 8.95082C24.3492 9.30246 23.8723 9.5 23.375 9.5C22.8777 9.5 22.4008 9.30246 22.0492 8.95082C21.6975 8.59919 21.5 8.12228 21.5 7.625C21.5 7.12772 21.6975 6.65081 22.0492 6.29917C22.4008 5.94754 22.8777 5.75 23.375 5.75C23.8723 5.75 24.3492 5.94754 24.7008 6.29917C25.0525 6.65081 25.25 7.12772 25.25 7.625ZM15.5 3.5C11.789 3.5 11.183 3.5105 9.4565 3.587C8.2805 3.6425 7.4915 3.8 6.7595 4.085C6.14692 4.30991 5.59312 4.67039 5.1395 5.1395C4.67001 5.5931 4.30903 6.14688 4.0835 6.7595C3.7985 7.4945 3.641 8.282 3.587 9.4565C3.509 11.1125 3.4985 11.6915 3.4985 15.5C3.4985 19.2125 3.509 19.817 3.5855 21.5435C3.641 22.718 3.7985 23.5085 4.082 24.239C4.337 24.8915 4.637 25.361 5.135 25.859C5.6405 26.363 6.11 26.6645 6.755 26.9135C7.496 27.2 8.285 27.359 9.455 27.413C11.111 27.491 11.69 27.5 15.4985 27.5C19.211 27.5 19.8155 27.4895 21.542 27.413C22.715 27.3575 23.504 27.2 24.2375 26.9165C24.8495 26.6905 25.4031 26.3302 25.8575 25.862C26.363 25.358 26.6645 24.8885 26.9135 24.242C27.1985 23.504 27.3575 22.715 27.4115 21.542C27.4895 19.8875 27.4985 19.307 27.4985 15.5C27.4985 11.789 27.488 11.183 27.4115 9.4565C27.356 8.2835 27.197 7.4915 26.9135 6.7595C26.6874 6.14753 26.3271 5.59397 25.859 5.1395C25.4056 4.66977 24.8518 4.30875 24.239 4.0835C23.504 3.7985 22.715 3.641 21.542 3.587C19.8875 3.509 19.31 3.5 15.5 3.5ZM15.5 0.5C19.5755 0.5 20.084 0.515 21.6845 0.59C23.2805 0.665 24.3695 0.9155 25.325 1.2875C26.315 1.6685 27.149 2.1845 27.983 3.017C28.7457 3.76684 29.3359 4.67388 29.7125 5.675C30.083 6.6305 30.335 7.7195 30.41 9.317C30.4805 10.916 30.5 11.4245 30.5 15.5C30.5 19.5755 30.485 20.084 30.41 21.683C30.335 23.2805 30.083 24.368 29.7125 25.325C29.337 26.3266 28.7466 27.2339 27.983 27.983C27.2329 28.7455 26.326 29.3356 25.325 29.7125C24.3695 30.083 23.2805 30.335 21.6845 30.41C20.084 30.4805 19.5755 30.5 15.5 30.5C11.4245 30.5 10.916 30.485 9.3155 30.41C7.7195 30.335 6.632 30.083 5.675 29.7125C4.67349 29.3367 3.76629 28.7464 3.017 27.983C2.25415 27.2332 1.66394 26.3262 1.2875 25.325C0.9155 24.3695 0.665 23.2805 0.59 21.683C0.518 20.084 0.5 19.5755 0.5 15.5C0.5 11.4245 0.515 10.916 0.59 9.317C0.665 7.718 0.9155 6.632 1.2875 5.675C1.66285 4.67327 2.25321 3.76598 3.017 3.017C3.76651 2.25385 4.67364 1.66359 5.675 1.2875C6.6305 0.9155 7.718 0.665 9.3155 0.59C10.916 0.5195 11.4245 0.5 15.5 0.5Z" fill="#1C2033"/>
</svg>
