<svg width="31" height="27" viewBox="0 0 31 27" fill="none" xmlns="http://www.w3.org/2000/svg">
<path d="M28.279 0.0027645C27.9085 0.0297726 27.5449 0.116862 27.2022 0.260636H27.1976C26.8687 0.391307 25.3049 1.05044 22.9274 2.04955L14.4078 5.64473C8.29444 8.22345 2.28498 10.7629 2.28498 10.7629L2.35654 10.7351C2.35654 10.7351 1.94221 10.8716 1.50942 11.1687C1.24205 11.3392 1.01197 11.5623 0.833112 11.8244C0.620755 12.1366 0.449947 12.6142 0.513423 13.108C0.617293 13.9429 1.15742 14.4436 1.5452 14.72C1.9376 14.9998 2.31153 15.1305 2.31153 15.1305H2.32076L7.95629 17.0327C8.20904 17.8457 9.6736 22.6701 10.0256 23.7814C10.2333 24.4451 10.4353 24.8603 10.6881 25.1771C10.8104 25.339 10.9535 25.4743 11.1255 25.583C11.2149 25.6351 11.3102 25.6762 11.4094 25.7056L11.3517 25.6917C11.369 25.6963 11.3828 25.7102 11.3955 25.7148C11.4417 25.7275 11.4729 25.7322 11.5317 25.7414C12.4239 26.012 13.1406 25.4569 13.1406 25.4569L13.1809 25.4246L16.5083 22.3891L22.0849 26.6758L22.2119 26.7301C23.3741 27.2412 24.5513 26.9568 25.1733 26.4549C25.8 25.9496 26.0435 25.3031 26.0435 25.3031L26.0839 25.1991L30.3934 3.07873C30.5157 2.53292 30.5469 2.0218 30.4118 1.52571C30.2726 1.02364 29.9511 0.591832 29.5105 0.314986C29.1405 0.0896256 28.7115 -0.0191506 28.279 0.0027645ZM28.1625 2.37334C28.1578 2.44619 28.1717 2.4381 28.1394 2.57802V2.59074L23.8703 24.481C23.8519 24.5122 23.8207 24.5804 23.7353 24.6486C23.6453 24.7203 23.5737 24.7654 23.1986 24.6163L16.3778 19.3767L12.2577 23.1396L13.1232 17.6005L24.2673 7.19312C24.7267 6.76526 24.5732 6.67506 24.5732 6.67506C24.6055 6.15007 23.8796 6.52126 23.8796 6.52126L9.8271 15.2438L9.82248 15.2207L3.08709 12.9484V12.9438L3.06978 12.9403C3.08159 12.9364 3.09315 12.9318 3.1044 12.9264L3.14133 12.9079L3.17711 12.8952C3.17711 12.8952 9.19118 10.3558 15.3045 7.77709C18.3652 6.48542 21.449 5.18449 23.8207 4.18076C25.2273 3.58754 26.6353 2.99778 28.0447 2.4115C28.1394 2.37449 28.0944 2.37334 28.1625 2.37334Z" fill="#1C2033"/>
</svg>
